G04 Layer: BottomSilkscreenLayer*
G04 EasyEDA v6.5.28, 2023-04-26 18:09:45*
G04 5b3014f588d64736849814bc4e181a52,358ee61244f84d38bc88aa0054fa78fe,10*
G04 Gerber Generator version 0.2*
G04 Scale: 100 percent, Rotated: No, Reflected: No *
G04 Dimensions in millimeters *
G04 leading zeros omitted , absolute positions ,4 integer and 5 decimal *
%FSLAX45Y45*%
%MOMM*%

%ADD10C,0.1000*%
%ADD11C,0.2000*%

%LPD*%
D10*
X4267200Y3403254D02*
G01*
X4267200Y3355527D01*
X4267200Y3403254D02*
G01*
X4246745Y3403254D01*
X4239928Y3400981D01*
X4237654Y3398707D01*
X4235381Y3394163D01*
X4235381Y3387346D01*
X4237654Y3382799D01*
X4239928Y3380526D01*
X4246745Y3378253D01*
X4267200Y3378253D01*
X4220382Y3403254D02*
G01*
X4220382Y3355527D01*
X4220382Y3403254D02*
G01*
X4202198Y3355527D01*
X4184017Y3403254D02*
G01*
X4202198Y3355527D01*
X4184017Y3403254D02*
G01*
X4184017Y3355527D01*
X4155381Y3403254D02*
G01*
X4159928Y3400981D01*
X4164472Y3396437D01*
X4166745Y3391890D01*
X4169018Y3385073D01*
X4169018Y3373709D01*
X4166745Y3366891D01*
X4164472Y3362345D01*
X4159928Y3357799D01*
X4155381Y3355527D01*
X4146290Y3355527D01*
X4141746Y3357799D01*
X4137200Y3362345D01*
X4134926Y3366891D01*
X4132653Y3373709D01*
X4132653Y3385073D01*
X4134926Y3391890D01*
X4137200Y3396437D01*
X4141746Y3400981D01*
X4146290Y3403254D01*
X4155381Y3403254D01*
X4117654Y3403254D02*
G01*
X4117654Y3355527D01*
X4117654Y3403254D02*
G01*
X4101746Y3403254D01*
X4094927Y3400981D01*
X4090382Y3396437D01*
X4088109Y3391890D01*
X4085836Y3385073D01*
X4085836Y3373709D01*
X4088109Y3366891D01*
X4090382Y3362345D01*
X4094927Y3357799D01*
X4101746Y3355527D01*
X4117654Y3355527D01*
X4070837Y3375982D02*
G01*
X4029928Y3375982D01*
X3983108Y3396437D02*
G01*
X3987655Y3400981D01*
X3994472Y3403254D01*
X4003563Y3403254D01*
X4010383Y3400981D01*
X4014927Y3396437D01*
X4014927Y3391890D01*
X4012653Y3387346D01*
X4010383Y3385073D01*
X4005836Y3382799D01*
X3992200Y3378253D01*
X3987655Y3375982D01*
X3985381Y3373709D01*
X3983108Y3369162D01*
X3983108Y3362345D01*
X3987655Y3357799D01*
X3994472Y3355527D01*
X4003563Y3355527D01*
X4010383Y3357799D01*
X4014927Y3362345D01*
X3968109Y3403254D02*
G01*
X3968109Y3355527D01*
X3968109Y3403254D02*
G01*
X3947655Y3403254D01*
X3940837Y3400981D01*
X3938564Y3398707D01*
X3936291Y3394163D01*
X3936291Y3387346D01*
X3938564Y3382799D01*
X3940837Y3380526D01*
X3947655Y3378253D01*
X3968109Y3378253D01*
X3921292Y3403254D02*
G01*
X3921292Y3355527D01*
X3906291Y3375982D02*
G01*
X3865382Y3375982D01*
X3850383Y3403254D02*
G01*
X3850383Y3355527D01*
X3850383Y3403254D02*
G01*
X3818564Y3355527D01*
X3818564Y3403254D02*
G01*
X3818564Y3355527D01*
X3789928Y3403254D02*
G01*
X3794472Y3400981D01*
X3799019Y3396437D01*
X3801292Y3391890D01*
X3803563Y3385073D01*
X3803563Y3373709D01*
X3801292Y3366891D01*
X3799019Y3362345D01*
X3794472Y3357799D01*
X3789928Y3355527D01*
X3780838Y3355527D01*
X3776291Y3357799D01*
X3771747Y3362345D01*
X3769474Y3366891D01*
X3767200Y3373709D01*
X3767200Y3385073D01*
X3769474Y3391890D01*
X3771747Y3396437D01*
X3776291Y3400981D01*
X3780838Y3403254D01*
X3789928Y3403254D01*
X3752199Y3403254D02*
G01*
X3752199Y3355527D01*
X3752199Y3403254D02*
G01*
X3731747Y3403254D01*
X3724927Y3400981D01*
X3722654Y3398707D01*
X3720383Y3394163D01*
X3720383Y3389617D01*
X3722654Y3385073D01*
X3724927Y3382799D01*
X3731747Y3380526D01*
X3752199Y3380526D01*
X3736291Y3380526D02*
G01*
X3720383Y3355527D01*
X3705382Y3375982D02*
G01*
X3664473Y3375982D01*
X3649474Y3403254D02*
G01*
X3649474Y3355527D01*
X3649474Y3403254D02*
G01*
X3619929Y3403254D01*
X3649474Y3380526D02*
G01*
X3631293Y3380526D01*
X3604928Y3403254D02*
G01*
X3604928Y3355527D01*
X3604928Y3355527D02*
G01*
X3577656Y3355527D01*
X3544473Y3403254D02*
G01*
X3562654Y3355527D01*
X3544473Y3403254D02*
G01*
X3526292Y3355527D01*
X3555837Y3371435D02*
G01*
X3533109Y3371435D01*
X3479474Y3396437D02*
G01*
X3484018Y3400981D01*
X3490838Y3403254D01*
X3499929Y3403254D01*
X3506746Y3400981D01*
X3511293Y3396437D01*
X3511293Y3391890D01*
X3509020Y3387346D01*
X3506746Y3385073D01*
X3502200Y3382799D01*
X3488565Y3378253D01*
X3484018Y3375982D01*
X3481748Y3373709D01*
X3479474Y3369162D01*
X3479474Y3362345D01*
X3484018Y3357799D01*
X3490838Y3355527D01*
X3499929Y3355527D01*
X3506746Y3357799D01*
X3511293Y3362345D01*
X3464473Y3403254D02*
G01*
X3464473Y3355527D01*
X3432655Y3403254D02*
G01*
X3432655Y3355527D01*
X3464473Y3380526D02*
G01*
X3432655Y3380526D01*
X3382655Y3403254D02*
G01*
X3382655Y3355527D01*
X3382655Y3380526D02*
G01*
X3378111Y3385073D01*
X3373564Y3387346D01*
X3366747Y3387346D01*
X3362200Y3385073D01*
X3357656Y3380526D01*
X3355383Y3373709D01*
X3355383Y3369162D01*
X3357656Y3362345D01*
X3362200Y3357799D01*
X3366747Y3355527D01*
X3373564Y3355527D01*
X3378111Y3357799D01*
X3382655Y3362345D01*
X3338111Y3387346D02*
G01*
X3324473Y3355527D01*
X3310839Y3387346D02*
G01*
X3324473Y3355527D01*
X3329020Y3346437D01*
X3333564Y3341890D01*
X3338111Y3339617D01*
X3340384Y3339617D01*
X3226747Y3385073D02*
G01*
X3229020Y3389617D01*
X3233564Y3391890D01*
X3240384Y3391890D01*
X3244928Y3389617D01*
X3247202Y3387346D01*
X3249475Y3380526D01*
X3249475Y3373709D01*
X3247202Y3369162D01*
X3242655Y3366891D01*
X3235838Y3366891D01*
X3231294Y3369162D01*
X3229020Y3373709D01*
X3240384Y3391890D02*
G01*
X3244928Y3387346D01*
X3247202Y3380526D01*
X3247202Y3373709D01*
X3244928Y3369162D01*
X3242655Y3366891D01*
X3226747Y3391890D02*
G01*
X3229020Y3373709D01*
X3229020Y3369162D01*
X3224474Y3366891D01*
X3219930Y3366891D01*
X3215383Y3371435D01*
X3213110Y3378253D01*
X3213110Y3382799D01*
X3215383Y3389617D01*
X3217656Y3394163D01*
X3222200Y3398707D01*
X3226747Y3400981D01*
X3233564Y3403254D01*
X3240384Y3403254D01*
X3247202Y3400981D01*
X3251748Y3398707D01*
X3256292Y3394163D01*
X3258565Y3389617D01*
X3260839Y3382799D01*
X3260839Y3375982D01*
X3258565Y3369162D01*
X3256292Y3364618D01*
X3251748Y3360072D01*
X3247202Y3357799D01*
X3240384Y3355527D01*
X3233564Y3355527D01*
X3226747Y3357799D01*
X3222200Y3360072D01*
X3219930Y3362345D01*
X3224474Y3391890D02*
G01*
X3226747Y3373709D01*
X3226747Y3369162D01*
X3224474Y3366891D01*
X3189020Y3403254D02*
G01*
X3186747Y3400981D01*
X3184474Y3403254D01*
X3186747Y3405527D01*
X3189020Y3403254D01*
X3186747Y3387346D02*
G01*
X3186747Y3348708D01*
X3189020Y3341890D01*
X3193564Y3339617D01*
X3198111Y3339617D01*
X3169475Y3403254D02*
G01*
X3167202Y3400981D01*
X3164928Y3403254D01*
X3167202Y3405527D01*
X3169475Y3403254D01*
X3167202Y3387346D02*
G01*
X3167202Y3355527D01*
X3149930Y3373709D02*
G01*
X3122655Y3373709D01*
X3122655Y3378253D01*
X3124928Y3382799D01*
X3127202Y3385073D01*
X3131748Y3387346D01*
X3138566Y3387346D01*
X3143110Y3385073D01*
X3147656Y3380526D01*
X3149930Y3373709D01*
X3149930Y3369162D01*
X3147656Y3362345D01*
X3143110Y3357799D01*
X3138566Y3355527D01*
X3131748Y3355527D01*
X3127202Y3357799D01*
X3122655Y3362345D01*
X3080384Y3387346D02*
G01*
X3080384Y3350981D01*
X3082655Y3344163D01*
X3084929Y3341890D01*
X3089475Y3339617D01*
X3096293Y3339617D01*
X3100839Y3341890D01*
X3080384Y3380526D02*
G01*
X3084929Y3385073D01*
X3089475Y3387346D01*
X3096293Y3387346D01*
X3100839Y3385073D01*
X3105383Y3380526D01*
X3107656Y3373709D01*
X3107656Y3369162D01*
X3105383Y3362345D01*
X3100839Y3357799D01*
X3096293Y3355527D01*
X3089475Y3355527D01*
X3084929Y3357799D01*
X3080384Y3362345D01*
X3065383Y3373709D02*
G01*
X3038111Y3373709D01*
X3038111Y3378253D01*
X3040385Y3382799D01*
X3042655Y3385073D01*
X3047202Y3387346D01*
X3054019Y3387346D01*
X3058566Y3385073D01*
X3063110Y3380526D01*
X3065383Y3373709D01*
X3065383Y3369162D01*
X3063110Y3362345D01*
X3058566Y3357799D01*
X3054019Y3355527D01*
X3047202Y3355527D01*
X3042655Y3357799D01*
X3038111Y3362345D01*
X2995838Y3380526D02*
G01*
X3000385Y3385073D01*
X3004929Y3387346D01*
X3011749Y3387346D01*
X3016293Y3385073D01*
X3020839Y3380526D01*
X3023110Y3373709D01*
X3023110Y3369162D01*
X3020839Y3362345D01*
X3016293Y3357799D01*
X3011749Y3355527D01*
X3004929Y3355527D01*
X3000385Y3357799D01*
X2995838Y3362345D01*
X2943565Y3391890D02*
G01*
X2943565Y3394163D01*
X2941294Y3398707D01*
X2939021Y3400981D01*
X2934474Y3403254D01*
X2925384Y3403254D01*
X2920839Y3400981D01*
X2918566Y3398707D01*
X2916293Y3394163D01*
X2916293Y3389617D01*
X2918566Y3385073D01*
X2923110Y3378253D01*
X2945838Y3355527D01*
X2914020Y3355527D01*
X2885384Y3403254D02*
G01*
X2892201Y3400981D01*
X2896748Y3394163D01*
X2899021Y3382799D01*
X2899021Y3375982D01*
X2896748Y3364618D01*
X2892201Y3357799D01*
X2885384Y3355527D01*
X2880840Y3355527D01*
X2874020Y3357799D01*
X2869476Y3364618D01*
X2867202Y3375982D01*
X2867202Y3382799D01*
X2869476Y3394163D01*
X2874020Y3400981D01*
X2880840Y3403254D01*
X2885384Y3403254D01*
X2849930Y3391890D02*
G01*
X2849930Y3394163D01*
X2847657Y3398707D01*
X2845384Y3400981D01*
X2840840Y3403254D01*
X2831749Y3403254D01*
X2827202Y3400981D01*
X2824929Y3398707D01*
X2822656Y3394163D01*
X2822656Y3389617D01*
X2824929Y3385073D01*
X2829476Y3378253D01*
X2852201Y3355527D01*
X2820385Y3355527D01*
X2800840Y3403254D02*
G01*
X2775838Y3403254D01*
X2789476Y3385073D01*
X2782656Y3385073D01*
X2778112Y3382799D01*
X2775838Y3380526D01*
X2773565Y3373709D01*
X2773565Y3369162D01*
X2775838Y3362345D01*
X2780385Y3357799D01*
X2787202Y3355527D01*
X2794020Y3355527D01*
X2800840Y3357799D01*
X2803110Y3360072D01*
X2805384Y3364618D01*
X2758566Y3375982D02*
G01*
X2717657Y3375982D01*
X2689021Y3403254D02*
G01*
X2695839Y3400981D01*
X2700385Y3394163D01*
X2702656Y3382799D01*
X2702656Y3375982D01*
X2700385Y3364618D01*
X2695839Y3357799D01*
X2689021Y3355527D01*
X2684475Y3355527D01*
X2677657Y3357799D01*
X2673111Y3364618D01*
X2670840Y3375982D01*
X2670840Y3382799D01*
X2673111Y3394163D01*
X2677657Y3400981D01*
X2684475Y3403254D01*
X2689021Y3403254D01*
X2633111Y3403254D02*
G01*
X2655839Y3371435D01*
X2621749Y3371435D01*
X2633111Y3403254D02*
G01*
X2633111Y3355527D01*
X2606748Y3375982D02*
G01*
X2565839Y3375982D01*
X2548567Y3391890D02*
G01*
X2548567Y3394163D01*
X2546294Y3398707D01*
X2544020Y3400981D01*
X2539476Y3403254D01*
X2530386Y3403254D01*
X2525839Y3400981D01*
X2523566Y3398707D01*
X2521295Y3394163D01*
X2521295Y3389617D01*
X2523566Y3385073D01*
X2528112Y3378253D01*
X2550840Y3355527D01*
X2519022Y3355527D01*
X2476748Y3396437D02*
G01*
X2479022Y3400981D01*
X2485839Y3403254D01*
X2490386Y3403254D01*
X2497203Y3400981D01*
X2501750Y3394163D01*
X2504020Y3382799D01*
X2504020Y3371435D01*
X2501750Y3362345D01*
X2497203Y3357799D01*
X2490386Y3355527D01*
X2488112Y3355527D01*
X2481295Y3357799D01*
X2476748Y3362345D01*
X2474475Y3369162D01*
X2474475Y3371435D01*
X2476748Y3378253D01*
X2481295Y3382799D01*
X2488112Y3385073D01*
X2490386Y3385073D01*
X2497203Y3382799D01*
X2501750Y3378253D01*
X2504020Y3371435D01*
D11*
X3505200Y5003109D02*
G01*
X3468837Y4907653D01*
X3432472Y5003109D02*
G01*
X3468837Y4907653D01*
X3334291Y4980381D02*
G01*
X3338837Y4989471D01*
X3347928Y4998562D01*
X3357018Y5003109D01*
X3375200Y5003109D01*
X3384290Y4998562D01*
X3393381Y4989471D01*
X3397928Y4980381D01*
X3402472Y4966746D01*
X3402472Y4944018D01*
X3397928Y4930381D01*
X3393381Y4921290D01*
X3384290Y4912199D01*
X3375200Y4907653D01*
X3357018Y4907653D01*
X3347928Y4912199D01*
X3338837Y4921290D01*
X3334291Y4930381D01*
X3236109Y4980381D02*
G01*
X3240653Y4989471D01*
X3249747Y4998562D01*
X3258837Y5003109D01*
X3277019Y5003109D01*
X3286109Y4998562D01*
X3295200Y4989471D01*
X3299747Y4980381D01*
X3304291Y4966746D01*
X3304291Y4944018D01*
X3299747Y4930381D01*
X3295200Y4921290D01*
X3286109Y4912199D01*
X3277019Y4907653D01*
X3258837Y4907653D01*
X3249747Y4912199D01*
X3240653Y4921290D01*
X3236109Y4930381D01*
X3437018Y4726381D02*
G01*
X3441562Y4735471D01*
X3450653Y4744562D01*
X3459746Y4749109D01*
X3477928Y4749109D01*
X3487018Y4744562D01*
X3496109Y4735471D01*
X3500653Y4726381D01*
X3505200Y4712746D01*
X3505200Y4690018D01*
X3500653Y4676381D01*
X3496109Y4667290D01*
X3487018Y4658199D01*
X3477928Y4653653D01*
X3459746Y4653653D01*
X3450653Y4658199D01*
X3441562Y4667290D01*
X3437018Y4676381D01*
X3437018Y4690018D01*
X3459746Y4690018D02*
G01*
X3437018Y4690018D01*
X3407018Y4749109D02*
G01*
X3407018Y4653653D01*
X3407018Y4749109D02*
G01*
X3343381Y4653653D01*
X3343381Y4749109D02*
G01*
X3343381Y4653653D01*
X3313381Y4749109D02*
G01*
X3313381Y4653653D01*
X3313381Y4749109D02*
G01*
X3281563Y4749109D01*
X3267928Y4744562D01*
X3258837Y4735471D01*
X3254291Y4726381D01*
X3249747Y4712746D01*
X3249747Y4690018D01*
X3254291Y4676381D01*
X3258837Y4667290D01*
X3267928Y4658199D01*
X3281563Y4653653D01*
X3313381Y4653653D01*
X3437018Y4472381D02*
G01*
X3441562Y4481471D01*
X3450653Y4490562D01*
X3459746Y4495109D01*
X3477928Y4495109D01*
X3487018Y4490562D01*
X3496109Y4481471D01*
X3500653Y4472381D01*
X3505200Y4458746D01*
X3505200Y4436018D01*
X3500653Y4422381D01*
X3496109Y4413290D01*
X3487018Y4404199D01*
X3477928Y4399653D01*
X3459746Y4399653D01*
X3450653Y4404199D01*
X3441562Y4413290D01*
X3437018Y4422381D01*
X3407018Y4495109D02*
G01*
X3407018Y4399653D01*
X3407018Y4399653D02*
G01*
X3352472Y4399653D01*
X3322472Y4495109D02*
G01*
X3322472Y4399653D01*
X3258837Y4495109D02*
G01*
X3322472Y4431471D01*
X3299747Y4454199D02*
G01*
X3258837Y4399653D01*
X3505200Y4241109D02*
G01*
X3505200Y4145653D01*
X3505200Y4241109D02*
G01*
X3473381Y4241109D01*
X3459746Y4236562D01*
X3450653Y4227471D01*
X3446109Y4218381D01*
X3441562Y4204746D01*
X3441562Y4182018D01*
X3446109Y4168381D01*
X3450653Y4159290D01*
X3459746Y4150199D01*
X3473381Y4145653D01*
X3505200Y4145653D01*
X3411562Y4222927D02*
G01*
X3402472Y4227471D01*
X3388837Y4241109D01*
X3388837Y4145653D01*
X3277019Y4259290D02*
G01*
X3358837Y4113837D01*
X3247019Y4241109D02*
G01*
X3247019Y4145653D01*
X3247019Y4241109D02*
G01*
X3215200Y4241109D01*
X3201563Y4236562D01*
X3192472Y4227471D01*
X3187928Y4218381D01*
X3183381Y4204746D01*
X3183381Y4182018D01*
X3187928Y4168381D01*
X3192472Y4159290D01*
X3201563Y4150199D01*
X3215200Y4145653D01*
X3247019Y4145653D01*
X3126110Y4241109D02*
G01*
X3135200Y4236562D01*
X3144291Y4227471D01*
X3148838Y4218381D01*
X3153382Y4204746D01*
X3153382Y4182018D01*
X3148838Y4168381D01*
X3144291Y4159290D01*
X3135200Y4150199D01*
X3126110Y4145653D01*
X3107928Y4145653D01*
X3098838Y4150199D01*
X3089747Y4159290D01*
X3085200Y4168381D01*
X3080654Y4182018D01*
X3080654Y4204746D01*
X3085200Y4218381D01*
X3089747Y4227471D01*
X3098838Y4236562D01*
X3107928Y4241109D01*
X3126110Y4241109D01*
X2968838Y4259290D02*
G01*
X3050654Y4113837D01*
X2938838Y4241109D02*
G01*
X2938838Y4145653D01*
X2938838Y4241109D02*
G01*
X2902473Y4145653D01*
X2866110Y4241109D02*
G01*
X2902473Y4145653D01*
X2866110Y4241109D02*
G01*
X2866110Y4145653D01*
X2836110Y4241109D02*
G01*
X2836110Y4145653D01*
X2742473Y4227471D02*
G01*
X2751564Y4236562D01*
X2765201Y4241109D01*
X2783382Y4241109D01*
X2797020Y4236562D01*
X2806110Y4227471D01*
X2806110Y4218381D01*
X2801564Y4209290D01*
X2797020Y4204746D01*
X2787929Y4200199D01*
X2760654Y4191109D01*
X2751564Y4186562D01*
X2747020Y4182018D01*
X2742473Y4172927D01*
X2742473Y4159290D01*
X2751564Y4150199D01*
X2765201Y4145653D01*
X2783382Y4145653D01*
X2797020Y4150199D01*
X2806110Y4159290D01*
X2685201Y4241109D02*
G01*
X2694292Y4236562D01*
X2703382Y4227471D01*
X2707929Y4218381D01*
X2712473Y4204746D01*
X2712473Y4182018D01*
X2707929Y4168381D01*
X2703382Y4159290D01*
X2694292Y4150199D01*
X2685201Y4145653D01*
X2667020Y4145653D01*
X2657929Y4150199D01*
X2648838Y4159290D01*
X2644292Y4168381D01*
X2639748Y4182018D01*
X2639748Y4204746D01*
X2644292Y4218381D01*
X2648838Y4227471D01*
X2657929Y4236562D01*
X2667020Y4241109D01*
X2685201Y4241109D01*
X3505200Y3987109D02*
G01*
X3505200Y3891653D01*
X3505200Y3987109D02*
G01*
X3473381Y3987109D01*
X3459746Y3982562D01*
X3450653Y3973471D01*
X3446109Y3964381D01*
X3441562Y3950746D01*
X3441562Y3928018D01*
X3446109Y3914381D01*
X3450653Y3905290D01*
X3459746Y3896199D01*
X3473381Y3891653D01*
X3505200Y3891653D01*
X3384290Y3987109D02*
G01*
X3397928Y3982562D01*
X3407018Y3968927D01*
X3411562Y3946199D01*
X3411562Y3932562D01*
X3407018Y3909837D01*
X3397928Y3896199D01*
X3384290Y3891653D01*
X3375200Y3891653D01*
X3361563Y3896199D01*
X3352472Y3909837D01*
X3347928Y3932562D01*
X3347928Y3946199D01*
X3352472Y3968927D01*
X3361563Y3982562D01*
X3375200Y3987109D01*
X3384290Y3987109D01*
X3236109Y4005290D02*
G01*
X3317928Y3859837D01*
X3206109Y3987109D02*
G01*
X3206109Y3891653D01*
X3206109Y3987109D02*
G01*
X3174291Y3987109D01*
X3160654Y3982562D01*
X3151563Y3973471D01*
X3147019Y3964381D01*
X3142472Y3950746D01*
X3142472Y3928018D01*
X3147019Y3914381D01*
X3151563Y3905290D01*
X3160654Y3896199D01*
X3174291Y3891653D01*
X3206109Y3891653D01*
X3112472Y3987109D02*
G01*
X3112472Y3891653D01*
X3000654Y4005290D02*
G01*
X3082472Y3859837D01*
X2970654Y3987109D02*
G01*
X2970654Y3891653D01*
X2970654Y3987109D02*
G01*
X2934291Y3891653D01*
X2897929Y3987109D02*
G01*
X2934291Y3891653D01*
X2897929Y3987109D02*
G01*
X2897929Y3891653D01*
X2840654Y3987109D02*
G01*
X2849747Y3982562D01*
X2858838Y3973471D01*
X2863382Y3964381D01*
X2867929Y3950746D01*
X2867929Y3928018D01*
X2863382Y3914381D01*
X2858838Y3905290D01*
X2849747Y3896199D01*
X2840654Y3891653D01*
X2822473Y3891653D01*
X2813382Y3896199D01*
X2804292Y3905290D01*
X2799748Y3914381D01*
X2795201Y3928018D01*
X2795201Y3950746D01*
X2799748Y3964381D01*
X2804292Y3973471D01*
X2813382Y3982562D01*
X2822473Y3987109D01*
X2840654Y3987109D01*
X2701564Y3973471D02*
G01*
X2710654Y3982562D01*
X2724292Y3987109D01*
X2742473Y3987109D01*
X2756110Y3982562D01*
X2765201Y3973471D01*
X2765201Y3964381D01*
X2760654Y3955290D01*
X2756110Y3950746D01*
X2747020Y3946199D01*
X2719748Y3937109D01*
X2710654Y3932562D01*
X2706110Y3928018D01*
X2701564Y3918927D01*
X2701564Y3905290D01*
X2710654Y3896199D01*
X2724292Y3891653D01*
X2742473Y3891653D01*
X2756110Y3896199D01*
X2765201Y3905290D01*
X2671564Y3987109D02*
G01*
X2671564Y3891653D01*
X3437018Y3710381D02*
G01*
X3441562Y3719471D01*
X3450653Y3728562D01*
X3459744Y3733109D01*
X3477925Y3733109D01*
X3487018Y3728562D01*
X3496109Y3719471D01*
X3500653Y3710381D01*
X3505200Y3696746D01*
X3505200Y3674018D01*
X3500653Y3660381D01*
X3496109Y3651290D01*
X3487018Y3642199D01*
X3477925Y3637653D01*
X3459744Y3637653D01*
X3450653Y3642199D01*
X3441562Y3651290D01*
X3437018Y3660381D01*
X3343381Y3719471D02*
G01*
X3352472Y3728562D01*
X3366109Y3733109D01*
X3384290Y3733109D01*
X3397925Y3728562D01*
X3407018Y3719471D01*
X3407018Y3710381D01*
X3402472Y3701290D01*
X3397925Y3696746D01*
X3388834Y3692199D01*
X3361563Y3683109D01*
X3352472Y3678562D01*
X3347925Y3674018D01*
X3343381Y3664927D01*
X3343381Y3651290D01*
X3352472Y3642199D01*
X3366109Y3637653D01*
X3384290Y3637653D01*
X3397925Y3642199D01*
X3407018Y3651290D01*
X3277019Y3751290D02*
G01*
X3308835Y3605837D01*
X3249744Y3751290D02*
G01*
X3281563Y3605837D01*
X3308835Y3692199D02*
G01*
X3245200Y3692199D01*
X3313381Y3664927D02*
G01*
X3249744Y3664927D01*
X4292600Y4990409D02*
G01*
X4256237Y4894953D01*
X4219872Y4990409D02*
G01*
X4256237Y4894953D01*
X4121691Y4967681D02*
G01*
X4126237Y4976771D01*
X4135328Y4985862D01*
X4144418Y4990409D01*
X4162600Y4990409D01*
X4171690Y4985862D01*
X4180781Y4976771D01*
X4185328Y4967681D01*
X4189872Y4954046D01*
X4189872Y4931318D01*
X4185328Y4917681D01*
X4180781Y4908590D01*
X4171690Y4899499D01*
X4162600Y4894953D01*
X4144418Y4894953D01*
X4135328Y4899499D01*
X4126237Y4908590D01*
X4121691Y4917681D01*
X4023509Y4967681D02*
G01*
X4028053Y4976771D01*
X4037147Y4985862D01*
X4046237Y4990409D01*
X4064419Y4990409D01*
X4073509Y4985862D01*
X4082600Y4976771D01*
X4087147Y4967681D01*
X4091691Y4954046D01*
X4091691Y4931318D01*
X4087147Y4917681D01*
X4082600Y4908590D01*
X4073509Y4899499D01*
X4064419Y4894953D01*
X4046237Y4894953D01*
X4037147Y4899499D01*
X4028053Y4908590D01*
X4023509Y4917681D01*
X4210776Y4726381D02*
G01*
X4215320Y4735471D01*
X4224411Y4744562D01*
X4233504Y4749109D01*
X4251685Y4749109D01*
X4260776Y4744562D01*
X4269866Y4735471D01*
X4274411Y4726381D01*
X4278957Y4712746D01*
X4278957Y4690018D01*
X4274411Y4676381D01*
X4269866Y4667290D01*
X4260776Y4658199D01*
X4251685Y4653653D01*
X4233504Y4653653D01*
X4224411Y4658199D01*
X4215320Y4667290D01*
X4210776Y4676381D01*
X4210776Y4690018D01*
X4233504Y4690018D02*
G01*
X4210776Y4690018D01*
X4180776Y4749109D02*
G01*
X4180776Y4653653D01*
X4180776Y4749109D02*
G01*
X4117139Y4653653D01*
X4117139Y4749109D02*
G01*
X4117139Y4653653D01*
X4087139Y4749109D02*
G01*
X4087139Y4653653D01*
X4087139Y4749109D02*
G01*
X4055320Y4749109D01*
X4041686Y4744562D01*
X4032595Y4735471D01*
X4028048Y4726381D01*
X4023504Y4712746D01*
X4023504Y4690018D01*
X4028048Y4676381D01*
X4032595Y4667290D01*
X4041686Y4658199D01*
X4055320Y4653653D01*
X4087139Y4653653D01*
X4180781Y4495109D02*
G01*
X4180781Y4399653D01*
X4180781Y4495109D02*
G01*
X4148963Y4495109D01*
X4135328Y4490562D01*
X4126235Y4481471D01*
X4121691Y4472381D01*
X4117144Y4458746D01*
X4117144Y4436018D01*
X4121691Y4422381D01*
X4126235Y4413290D01*
X4135328Y4404199D01*
X4148963Y4399653D01*
X4180781Y4399653D01*
X4078053Y4495109D02*
G01*
X4028053Y4495109D01*
X4055328Y4458746D01*
X4041691Y4458746D01*
X4032600Y4454199D01*
X4028053Y4449653D01*
X4023509Y4436018D01*
X4023509Y4426927D01*
X4028053Y4413290D01*
X4037144Y4404199D01*
X4050781Y4399653D01*
X4064419Y4399653D01*
X4078053Y4404199D01*
X4082600Y4408746D01*
X4087144Y4417837D01*
X4180781Y4241109D02*
G01*
X4180781Y4145653D01*
X4180781Y4241109D02*
G01*
X4148963Y4241109D01*
X4135328Y4236562D01*
X4126235Y4227471D01*
X4121691Y4218381D01*
X4117144Y4204746D01*
X4117144Y4182018D01*
X4121691Y4168381D01*
X4126235Y4159290D01*
X4135328Y4150199D01*
X4148963Y4145653D01*
X4180781Y4145653D01*
X4082600Y4218381D02*
G01*
X4082600Y4222927D01*
X4078053Y4232018D01*
X4073509Y4236562D01*
X4064419Y4241109D01*
X4046235Y4241109D01*
X4037144Y4236562D01*
X4032600Y4232018D01*
X4028053Y4222927D01*
X4028053Y4213837D01*
X4032600Y4204746D01*
X4041691Y4191109D01*
X4087144Y4145653D01*
X4023509Y4145653D01*
X4185320Y3987109D02*
G01*
X4185320Y3891653D01*
X4185320Y3987109D02*
G01*
X4121683Y3891653D01*
X4121683Y3987109D02*
G01*
X4121683Y3891653D01*
X4023502Y3964381D02*
G01*
X4028046Y3973471D01*
X4037136Y3982562D01*
X4046230Y3987109D01*
X4064411Y3987109D01*
X4073502Y3982562D01*
X4082592Y3973471D01*
X4087136Y3964381D01*
X4091683Y3950746D01*
X4091683Y3928018D01*
X4087136Y3914381D01*
X4082592Y3905290D01*
X4073502Y3896199D01*
X4064411Y3891653D01*
X4046230Y3891653D01*
X4037136Y3896199D01*
X4028046Y3905290D01*
X4023502Y3914381D01*
X4185320Y3733109D02*
G01*
X4185320Y3637653D01*
X4185320Y3733109D02*
G01*
X4121683Y3637653D01*
X4121683Y3733109D02*
G01*
X4121683Y3637653D01*
X4023502Y3710381D02*
G01*
X4028048Y3719471D01*
X4037139Y3728562D01*
X4046230Y3733109D01*
X4064411Y3733109D01*
X4073502Y3728562D01*
X4082592Y3719471D01*
X4087139Y3710381D01*
X4091683Y3696746D01*
X4091683Y3674018D01*
X4087139Y3660381D01*
X4082592Y3651290D01*
X4073502Y3642199D01*
X4064411Y3637653D01*
X4046230Y3637653D01*
X4037139Y3642199D01*
X4028048Y3651290D01*
X4023502Y3660381D01*
M02*
