G04 Layer: TopLayer*
G04 EasyEDA v6.5.28, 2023-04-26 18:09:45*
G04 5b3014f588d64736849814bc4e181a52,358ee61244f84d38bc88aa0054fa78fe,10*
G04 Gerber Generator version 0.2*
G04 Scale: 100 percent, Rotated: No, Reflected: No *
G04 Dimensions in millimeters *
G04 leading zeros omitted , absolute positions ,4 integer and 5 decimal *
%FSLAX45Y45*%
%MOMM*%

%AMMACRO1*21,1,$1,$2,0,0,$3*%
%ADD10C,0.2540*%
%ADD11MACRO1,0.54X0.5656X-90.0000*%
%ADD12MACRO1,0.54X0.5656X0.0000*%
%ADD13R,0.5400X0.5657*%
%ADD14MACRO1,0.54X0.7901X0.0000*%
%ADD15R,0.5400X0.7901*%
%ADD16O,0.6299962X2.2500082*%
%ADD17R,1.8000X1.8000*%
%ADD18C,1.8000*%
%ADD19C,0.6200*%
%ADD20C,0.0126*%

%LPD*%
G36*
X2322068Y3327908D02*
G01*
X2318156Y3328670D01*
X2314905Y3330905D01*
X2312670Y3334156D01*
X2311908Y3338068D01*
X2311908Y5297932D01*
X2312670Y5301843D01*
X2314905Y5305094D01*
X2318156Y5307330D01*
X2322068Y5308092D01*
X4281932Y5308092D01*
X4285843Y5307330D01*
X4289094Y5305094D01*
X4291330Y5301843D01*
X4292092Y5297932D01*
X4292092Y3338068D01*
X4291330Y3334156D01*
X4289094Y3330905D01*
X4285843Y3328670D01*
X4281932Y3327908D01*
G37*

%LPC*%
G36*
X2767584Y3407714D02*
G01*
X2820416Y3407714D01*
X2826766Y3408426D01*
X2832201Y3410356D01*
X2837129Y3413455D01*
X2841193Y3417519D01*
X2844139Y3421075D01*
X2847086Y3422751D01*
X2850438Y3423310D01*
X3004261Y3423310D01*
X3007614Y3422751D01*
X3010560Y3421075D01*
X3013506Y3417519D01*
X3017570Y3413455D01*
X3022498Y3410356D01*
X3027934Y3408426D01*
X3034284Y3407714D01*
X3087116Y3407714D01*
X3093466Y3408426D01*
X3098901Y3410356D01*
X3103829Y3413455D01*
X3107893Y3417519D01*
X3110992Y3422446D01*
X3112871Y3427882D01*
X3113582Y3434181D01*
X3113582Y3489655D01*
X3112211Y3500170D01*
X3113074Y3503929D01*
X3115310Y3507079D01*
X3118561Y3509162D01*
X3122320Y3509873D01*
X3365500Y3509873D01*
X3369411Y3509111D01*
X3372713Y3506876D01*
X3426764Y3452876D01*
X3432962Y3447745D01*
X3439668Y3444189D01*
X3446881Y3442004D01*
X3454908Y3441192D01*
X4038092Y3441192D01*
X4046118Y3442004D01*
X4053332Y3444189D01*
X4060037Y3447745D01*
X4066235Y3452876D01*
X4167124Y3553764D01*
X4172254Y3559962D01*
X4175810Y3566668D01*
X4177995Y3573881D01*
X4178808Y3581908D01*
X4178808Y3961942D01*
X4177995Y3969918D01*
X4175810Y3977182D01*
X4172254Y3983837D01*
X4167124Y3990086D01*
X4020921Y4136288D01*
X4018737Y4139539D01*
X4017924Y4143400D01*
X4018686Y4147210D01*
X4021836Y4155186D01*
X4025442Y4169308D01*
X4027271Y4183735D01*
X4027271Y4198264D01*
X4025442Y4212691D01*
X4021836Y4226814D01*
X4016451Y4240326D01*
X4009440Y4253077D01*
X4000906Y4264863D01*
X3990949Y4275480D01*
X3979722Y4284776D01*
X3967429Y4292549D01*
X3954272Y4298746D01*
X3940403Y4303268D01*
X3926128Y4305960D01*
X3911600Y4306874D01*
X3897071Y4305960D01*
X3882796Y4303268D01*
X3868928Y4298746D01*
X3855770Y4292549D01*
X3843477Y4284776D01*
X3832250Y4275480D01*
X3822293Y4264863D01*
X3813759Y4253077D01*
X3806748Y4240326D01*
X3801364Y4226814D01*
X3797757Y4212691D01*
X3795928Y4198264D01*
X3795928Y4183735D01*
X3797757Y4169308D01*
X3801364Y4155186D01*
X3806748Y4141673D01*
X3813759Y4128922D01*
X3822293Y4117136D01*
X3832250Y4106519D01*
X3843477Y4097223D01*
X3855770Y4089450D01*
X3868928Y4083253D01*
X3882796Y4078732D01*
X3897071Y4076039D01*
X3911600Y4075125D01*
X3926128Y4076039D01*
X3940403Y4078732D01*
X3954272Y4083253D01*
X3958945Y4084523D01*
X3963009Y4083812D01*
X3966464Y4081576D01*
X4098594Y3949395D01*
X4100829Y3946093D01*
X4101592Y3942232D01*
X4101592Y3601618D01*
X4100829Y3597706D01*
X4098594Y3594404D01*
X4025595Y3521405D01*
X4022293Y3519170D01*
X4018381Y3518408D01*
X3474618Y3518408D01*
X3470706Y3519170D01*
X3467404Y3521405D01*
X3413353Y3575456D01*
X3407156Y3580536D01*
X3400450Y3584092D01*
X3393236Y3586276D01*
X3385210Y3587089D01*
X3117138Y3587089D01*
X3113786Y3587648D01*
X3110839Y3589324D01*
X3107893Y3592880D01*
X3101390Y3599230D01*
X3099866Y3602177D01*
X3099308Y3605428D01*
X3099308Y3837533D01*
X3100019Y3841242D01*
X3102000Y3844442D01*
X3105962Y3848760D01*
X3111144Y3856685D01*
X3114903Y3865219D01*
X3117138Y3868420D01*
X3120390Y3870553D01*
X3124200Y3871315D01*
X3128010Y3870553D01*
X3131261Y3868420D01*
X3133496Y3865219D01*
X3137255Y3856685D01*
X3142437Y3848760D01*
X3148838Y3841800D01*
X3156305Y3835958D01*
X3164636Y3831437D01*
X3165602Y3831132D01*
X3165602Y3902405D01*
X3128264Y3902405D01*
X3124403Y3903167D01*
X3121101Y3905351D01*
X3118866Y3908653D01*
X3118104Y3912565D01*
X3118104Y4017416D01*
X3118866Y4021328D01*
X3121101Y4024629D01*
X3124403Y4026814D01*
X3128264Y4027576D01*
X3165602Y4027576D01*
X3165602Y4098848D01*
X3164636Y4098544D01*
X3156305Y4094022D01*
X3148838Y4088231D01*
X3142437Y4081221D01*
X3137255Y4073296D01*
X3133496Y4064762D01*
X3131261Y4061561D01*
X3128010Y4059478D01*
X3124200Y4058716D01*
X3120390Y4059478D01*
X3117138Y4061561D01*
X3114903Y4064762D01*
X3111144Y4073296D01*
X3105962Y4081221D01*
X3099562Y4088231D01*
X3092094Y4094022D01*
X3083763Y4098544D01*
X3074771Y4101642D01*
X3065424Y4103166D01*
X3055975Y4103166D01*
X3046628Y4101642D01*
X3037636Y4098544D01*
X3029305Y4094022D01*
X3021838Y4088231D01*
X3015437Y4081221D01*
X3010255Y4073296D01*
X3006496Y4064762D01*
X3004261Y4061561D01*
X3001010Y4059478D01*
X2997200Y4058716D01*
X2993390Y4059478D01*
X2990138Y4061561D01*
X2987903Y4064762D01*
X2984144Y4073296D01*
X2978962Y4081221D01*
X2972562Y4088231D01*
X2965094Y4094022D01*
X2956763Y4098544D01*
X2947771Y4101642D01*
X2938424Y4103166D01*
X2928975Y4103166D01*
X2919628Y4101642D01*
X2910636Y4098544D01*
X2902305Y4094022D01*
X2894838Y4088231D01*
X2888437Y4081221D01*
X2883255Y4073296D01*
X2879496Y4064762D01*
X2877261Y4061561D01*
X2874010Y4059478D01*
X2870200Y4058716D01*
X2866390Y4059478D01*
X2863138Y4061561D01*
X2860903Y4064762D01*
X2857144Y4073296D01*
X2851962Y4081221D01*
X2845562Y4088231D01*
X2838094Y4094022D01*
X2829763Y4098544D01*
X2820771Y4101642D01*
X2811424Y4103166D01*
X2801975Y4103166D01*
X2792628Y4101642D01*
X2783636Y4098544D01*
X2775305Y4094022D01*
X2767838Y4088231D01*
X2761437Y4081221D01*
X2756255Y4073296D01*
X2752445Y4064609D01*
X2750108Y4055465D01*
X2749296Y4045559D01*
X2749296Y3884422D01*
X2750108Y3874566D01*
X2752445Y3865372D01*
X2754528Y3860596D01*
X2755392Y3856482D01*
X2755392Y3728974D01*
X2754833Y3725570D01*
X2753156Y3722573D01*
X2746857Y3714851D01*
X2742184Y3706418D01*
X2738983Y3697325D01*
X2737358Y3687826D01*
X2737358Y3678174D01*
X2738983Y3668674D01*
X2742184Y3659581D01*
X2746857Y3651148D01*
X2753156Y3643426D01*
X2754833Y3640429D01*
X2755392Y3637026D01*
X2755392Y3605428D01*
X2754833Y3602177D01*
X2753309Y3599230D01*
X2746806Y3592880D01*
X2743708Y3587953D01*
X2741828Y3582517D01*
X2741117Y3576218D01*
X2741117Y3520744D01*
X2742488Y3510229D01*
X2741625Y3506470D01*
X2739390Y3503320D01*
X2736138Y3501237D01*
X2732379Y3500526D01*
X2628900Y3500526D01*
X2624988Y3501288D01*
X2621686Y3503523D01*
X2543505Y3581704D01*
X2541270Y3585006D01*
X2540508Y3588918D01*
X2540508Y4488281D01*
X2541270Y4492193D01*
X2543505Y4495495D01*
X2598724Y4550714D01*
X2602026Y4552899D01*
X2605887Y4553661D01*
X2642616Y4553661D01*
X2648966Y4554372D01*
X2654401Y4556302D01*
X2659329Y4559401D01*
X2663393Y4563465D01*
X2666492Y4568393D01*
X2668371Y4573828D01*
X2669082Y4580178D01*
X2669082Y4613198D01*
X2669895Y4617059D01*
X2672080Y4620361D01*
X2681122Y4629404D01*
X2684424Y4631639D01*
X2688336Y4632401D01*
X2739136Y4632401D01*
X2742996Y4631639D01*
X2746298Y4629404D01*
X2748534Y4626102D01*
X2749296Y4622241D01*
X2749296Y4590440D01*
X2750108Y4580534D01*
X2752445Y4571390D01*
X2756255Y4562703D01*
X2761437Y4554778D01*
X2767838Y4547768D01*
X2775305Y4541977D01*
X2783636Y4537456D01*
X2792628Y4534357D01*
X2801975Y4532833D01*
X2811424Y4532833D01*
X2820771Y4534357D01*
X2829763Y4537456D01*
X2838094Y4541977D01*
X2845562Y4547768D01*
X2851962Y4554778D01*
X2857144Y4562703D01*
X2860903Y4571238D01*
X2863138Y4574438D01*
X2866390Y4576521D01*
X2870200Y4577283D01*
X2874010Y4576521D01*
X2877261Y4574438D01*
X2879496Y4571238D01*
X2883255Y4562703D01*
X2888437Y4554778D01*
X2894838Y4547768D01*
X2902305Y4541977D01*
X2910636Y4537456D01*
X2919628Y4534357D01*
X2928975Y4532833D01*
X2938424Y4532833D01*
X2947771Y4534357D01*
X2956763Y4537456D01*
X2965094Y4541977D01*
X2972562Y4547768D01*
X2978962Y4554778D01*
X2984144Y4562703D01*
X2987903Y4571238D01*
X2990138Y4574438D01*
X2993390Y4576521D01*
X2997200Y4577283D01*
X3001010Y4576521D01*
X3004261Y4574438D01*
X3006496Y4571238D01*
X3010255Y4562703D01*
X3015437Y4554778D01*
X3021838Y4547768D01*
X3029305Y4541977D01*
X3037636Y4537456D01*
X3046628Y4534357D01*
X3055975Y4532833D01*
X3065424Y4532833D01*
X3074771Y4534357D01*
X3083763Y4537456D01*
X3092094Y4541977D01*
X3099562Y4547768D01*
X3105962Y4554778D01*
X3111144Y4562703D01*
X3114903Y4571238D01*
X3117138Y4574438D01*
X3120390Y4576521D01*
X3124200Y4577283D01*
X3128010Y4576521D01*
X3131261Y4574438D01*
X3133496Y4571238D01*
X3137255Y4562703D01*
X3142437Y4554778D01*
X3148838Y4547768D01*
X3156305Y4541977D01*
X3164636Y4537456D01*
X3173628Y4534357D01*
X3182975Y4532833D01*
X3192424Y4532833D01*
X3201771Y4534357D01*
X3210763Y4537456D01*
X3219094Y4541977D01*
X3226562Y4547768D01*
X3232962Y4554778D01*
X3238144Y4562703D01*
X3241954Y4571390D01*
X3244291Y4580534D01*
X3245104Y4590440D01*
X3245104Y4622241D01*
X3245866Y4626102D01*
X3248101Y4629404D01*
X3251403Y4631639D01*
X3255264Y4632401D01*
X3322472Y4632401D01*
X3326384Y4631639D01*
X3329686Y4629404D01*
X3412794Y4546295D01*
X3415029Y4542993D01*
X3415792Y4539081D01*
X3415792Y4140708D01*
X3416604Y4132681D01*
X3418789Y4125468D01*
X3422345Y4118813D01*
X3427476Y4112564D01*
X3548278Y3991711D01*
X3550462Y3988460D01*
X3551275Y3984650D01*
X3550564Y3980789D01*
X3547364Y3972814D01*
X3543757Y3958691D01*
X3541928Y3944264D01*
X3541928Y3929735D01*
X3543757Y3915308D01*
X3547364Y3901186D01*
X3552748Y3887673D01*
X3559759Y3874922D01*
X3568293Y3863136D01*
X3578250Y3852519D01*
X3589477Y3843223D01*
X3601770Y3835450D01*
X3614928Y3829253D01*
X3628796Y3824732D01*
X3643071Y3822039D01*
X3657600Y3821125D01*
X3672128Y3822039D01*
X3686403Y3824732D01*
X3700272Y3829253D01*
X3713429Y3835450D01*
X3725722Y3843223D01*
X3736949Y3852519D01*
X3746906Y3863136D01*
X3755440Y3874922D01*
X3762451Y3887673D01*
X3767836Y3901186D01*
X3771442Y3915308D01*
X3773271Y3929735D01*
X3773271Y3944264D01*
X3771442Y3958691D01*
X3767836Y3972814D01*
X3762451Y3986326D01*
X3755440Y3999077D01*
X3746906Y4010863D01*
X3736949Y4021480D01*
X3725722Y4030776D01*
X3713429Y4038549D01*
X3700272Y4044746D01*
X3686403Y4049268D01*
X3672128Y4051960D01*
X3657600Y4052874D01*
X3643071Y4051960D01*
X3628796Y4049268D01*
X3614928Y4044746D01*
X3610254Y4043476D01*
X3606190Y4044187D01*
X3602786Y4046474D01*
X3496005Y4153255D01*
X3493770Y4156557D01*
X3493008Y4160418D01*
X3493008Y4530496D01*
X3493770Y4534357D01*
X3496005Y4537659D01*
X3499256Y4539894D01*
X3503168Y4540656D01*
X3507079Y4539894D01*
X3510330Y4537659D01*
X3548278Y4499711D01*
X3550462Y4496460D01*
X3551275Y4492650D01*
X3550564Y4488789D01*
X3547364Y4480814D01*
X3543757Y4466691D01*
X3541928Y4452264D01*
X3541928Y4437735D01*
X3543757Y4423308D01*
X3547364Y4409186D01*
X3552748Y4395673D01*
X3559759Y4382922D01*
X3568293Y4371136D01*
X3578250Y4360519D01*
X3589477Y4351223D01*
X3601770Y4343450D01*
X3614928Y4337253D01*
X3628796Y4332732D01*
X3643071Y4330039D01*
X3657600Y4329125D01*
X3672128Y4330039D01*
X3686403Y4332732D01*
X3700272Y4337253D01*
X3713429Y4343450D01*
X3725722Y4351223D01*
X3736949Y4360519D01*
X3746906Y4371136D01*
X3755440Y4382922D01*
X3762451Y4395673D01*
X3767836Y4409186D01*
X3771442Y4423308D01*
X3773271Y4437735D01*
X3773271Y4452264D01*
X3771442Y4466691D01*
X3767836Y4480814D01*
X3762451Y4494326D01*
X3755440Y4507077D01*
X3746906Y4518863D01*
X3736949Y4529480D01*
X3725722Y4538776D01*
X3713429Y4546549D01*
X3700272Y4552746D01*
X3686403Y4557268D01*
X3672128Y4559960D01*
X3657600Y4560874D01*
X3643071Y4559960D01*
X3628796Y4557268D01*
X3614928Y4552746D01*
X3610254Y4551476D01*
X3606190Y4552188D01*
X3602786Y4554474D01*
X3220567Y4936642D01*
X3214319Y4941773D01*
X3207664Y4945329D01*
X3200400Y4947513D01*
X3192424Y4948326D01*
X3147720Y4948326D01*
X3143961Y4949037D01*
X3140710Y4951120D01*
X3138474Y4954270D01*
X3137611Y4958029D01*
X3138982Y4968544D01*
X3138982Y4975809D01*
X3105962Y4975809D01*
X3105962Y4974082D01*
X3105200Y4970170D01*
X3102965Y4966868D01*
X3099663Y4964684D01*
X3095802Y4963922D01*
X3076397Y4963922D01*
X3072536Y4964684D01*
X3069234Y4966868D01*
X3066999Y4970170D01*
X3066237Y4974082D01*
X3066237Y4975809D01*
X3033217Y4975809D01*
X3033217Y4968544D01*
X3033928Y4962245D01*
X3035960Y4956352D01*
X3036519Y4953000D01*
X3035960Y4949647D01*
X3033928Y4943754D01*
X3033217Y4937455D01*
X3033217Y4914900D01*
X3032607Y4911496D01*
X3030880Y4908499D01*
X3028645Y4905756D01*
X3025089Y4899050D01*
X3022904Y4891836D01*
X3022092Y4883810D01*
X3022092Y4798466D01*
X3021380Y4794758D01*
X3019399Y4791557D01*
X3015437Y4787239D01*
X3010255Y4779314D01*
X3006496Y4770780D01*
X3004261Y4767580D01*
X3001010Y4765446D01*
X2997200Y4764684D01*
X2993390Y4765446D01*
X2990138Y4767580D01*
X2987903Y4770780D01*
X2984144Y4779314D01*
X2978962Y4787239D01*
X2975000Y4791557D01*
X2973019Y4794758D01*
X2972308Y4798466D01*
X2972308Y4903317D01*
X2972714Y4906162D01*
X2973882Y4908804D01*
X2977743Y4914798D01*
X2979674Y4920234D01*
X2980385Y4926584D01*
X2980385Y4979416D01*
X2979674Y4985766D01*
X2977743Y4991201D01*
X2974644Y4996129D01*
X2970580Y5000193D01*
X2967024Y5003139D01*
X2965348Y5006086D01*
X2964789Y5009438D01*
X2964789Y5026863D01*
X2965551Y5030774D01*
X2967786Y5034076D01*
X3022904Y5089194D01*
X3026206Y5091430D01*
X3030118Y5092192D01*
X4005681Y5092192D01*
X4009593Y5091430D01*
X4012895Y5089194D01*
X4047794Y5054295D01*
X4050029Y5050993D01*
X4050792Y5047081D01*
X4050792Y4604918D01*
X4050029Y4601006D01*
X4047794Y4597704D01*
X3991051Y4540961D01*
X3988257Y4538980D01*
X3985006Y4538065D01*
X3981602Y4538268D01*
X3978452Y4539589D01*
X3967429Y4546549D01*
X3954272Y4552746D01*
X3940403Y4557268D01*
X3926128Y4559960D01*
X3911600Y4560874D01*
X3897071Y4559960D01*
X3882796Y4557268D01*
X3868928Y4552746D01*
X3855770Y4546549D01*
X3843477Y4538776D01*
X3832250Y4529480D01*
X3822293Y4518863D01*
X3813759Y4507077D01*
X3806748Y4494326D01*
X3801364Y4480814D01*
X3797757Y4466691D01*
X3795928Y4452264D01*
X3795928Y4437735D01*
X3797757Y4423308D01*
X3801364Y4409186D01*
X3806748Y4395673D01*
X3813759Y4382922D01*
X3822293Y4371136D01*
X3832250Y4360519D01*
X3843477Y4351223D01*
X3855770Y4343450D01*
X3868928Y4337253D01*
X3882796Y4332732D01*
X3897071Y4330039D01*
X3911600Y4329125D01*
X3926128Y4330039D01*
X3940403Y4332732D01*
X3954272Y4337253D01*
X3967429Y4343450D01*
X3979722Y4351223D01*
X3990949Y4360519D01*
X4000906Y4371136D01*
X4009440Y4382922D01*
X4016451Y4395673D01*
X4021836Y4409186D01*
X4025442Y4423308D01*
X4027271Y4437735D01*
X4027271Y4452264D01*
X4026103Y4461256D01*
X4026204Y4464354D01*
X4027220Y4467250D01*
X4028998Y4469739D01*
X4116324Y4557064D01*
X4121454Y4563262D01*
X4125010Y4569968D01*
X4127195Y4577181D01*
X4128008Y4585208D01*
X4128008Y5066792D01*
X4127195Y5074818D01*
X4125010Y5082032D01*
X4121454Y5088737D01*
X4116324Y5094935D01*
X4053535Y5157724D01*
X4047337Y5162854D01*
X4040632Y5166410D01*
X4033418Y5168595D01*
X4025392Y5169408D01*
X3010408Y5169408D01*
X3002381Y5168595D01*
X2995168Y5166410D01*
X2988462Y5162854D01*
X2982264Y5157724D01*
X2899257Y5074716D01*
X2896260Y5071059D01*
X2893009Y5068468D01*
X2889046Y5067401D01*
X2884982Y5067960D01*
X2881426Y5070094D01*
X2879039Y5073497D01*
X2878226Y5077510D01*
X2878226Y5085080D01*
X2878937Y5088890D01*
X2881071Y5092141D01*
X2883865Y5095087D01*
X2889250Y5103063D01*
X2893263Y5111851D01*
X2895650Y5121198D01*
X2896514Y5130800D01*
X2895650Y5140401D01*
X2893263Y5149748D01*
X2889250Y5158536D01*
X2883865Y5166512D01*
X2877210Y5173472D01*
X2869438Y5179212D01*
X2860802Y5183581D01*
X2851607Y5186375D01*
X2842056Y5187645D01*
X2832404Y5187188D01*
X2822956Y5185156D01*
X2814015Y5181600D01*
X2805785Y5176520D01*
X2798572Y5170170D01*
X2792476Y5162651D01*
X2787802Y5154218D01*
X2784602Y5145125D01*
X2782976Y5135626D01*
X2782976Y5125974D01*
X2784602Y5116474D01*
X2787802Y5107381D01*
X2792476Y5098948D01*
X2798775Y5091226D01*
X2800451Y5088229D01*
X2801010Y5084826D01*
X2801010Y5009438D01*
X2800451Y5006086D01*
X2798775Y5003139D01*
X2795219Y5000193D01*
X2791155Y4996129D01*
X2788056Y4991201D01*
X2786126Y4985766D01*
X2785414Y4979416D01*
X2785414Y4957622D01*
X2784652Y4953711D01*
X2782468Y4950460D01*
X2779776Y4947716D01*
X2774645Y4941519D01*
X2771089Y4934864D01*
X2768904Y4927600D01*
X2768092Y4919573D01*
X2768092Y4798466D01*
X2767380Y4794758D01*
X2765399Y4791557D01*
X2761437Y4787239D01*
X2756255Y4779314D01*
X2752445Y4770628D01*
X2750108Y4761433D01*
X2749296Y4751578D01*
X2749296Y4719777D01*
X2748534Y4715865D01*
X2746298Y4712614D01*
X2742996Y4710379D01*
X2739136Y4709617D01*
X2668625Y4709617D01*
X2660599Y4708804D01*
X2653334Y4706620D01*
X2646934Y4703216D01*
X2644648Y4702302D01*
X2642158Y4701997D01*
X2636062Y4701997D01*
X2636062Y4697730D01*
X2635300Y4693869D01*
X2633065Y4690567D01*
X2629966Y4687468D01*
X2626715Y4685284D01*
X2622804Y4684522D01*
X2606497Y4684522D01*
X2602636Y4685284D01*
X2599334Y4687468D01*
X2597099Y4690770D01*
X2596337Y4694682D01*
X2596337Y4701997D01*
X2563317Y4701997D01*
X2563317Y4689195D01*
X2564028Y4682845D01*
X2566060Y4676952D01*
X2566619Y4673600D01*
X2566060Y4670247D01*
X2564028Y4664354D01*
X2563317Y4658004D01*
X2563317Y4628692D01*
X2562504Y4624832D01*
X2560320Y4621530D01*
X2474976Y4536135D01*
X2469845Y4529937D01*
X2466289Y4523232D01*
X2464104Y4516018D01*
X2463292Y4507992D01*
X2463292Y3569208D01*
X2464104Y3561181D01*
X2466289Y3553968D01*
X2469845Y3547262D01*
X2474976Y3541064D01*
X2581046Y3434943D01*
X2587244Y3429863D01*
X2593949Y3426307D01*
X2601163Y3424072D01*
X2609189Y3423310D01*
X2737561Y3423310D01*
X2740914Y3422751D01*
X2743860Y3421075D01*
X2746806Y3417519D01*
X2750870Y3413455D01*
X2755798Y3410356D01*
X2761234Y3408426D01*
G37*
G36*
X3911600Y3567125D02*
G01*
X3926128Y3568039D01*
X3940403Y3570732D01*
X3954272Y3575253D01*
X3967429Y3581450D01*
X3979722Y3589223D01*
X3990949Y3598519D01*
X4000906Y3609136D01*
X4009440Y3620922D01*
X4016451Y3633673D01*
X4021836Y3647186D01*
X4025442Y3661308D01*
X4027271Y3675735D01*
X4027271Y3690264D01*
X4025442Y3704691D01*
X4021836Y3718814D01*
X4016451Y3732326D01*
X4009440Y3745077D01*
X4000906Y3756863D01*
X3990949Y3767480D01*
X3979722Y3776776D01*
X3967429Y3784549D01*
X3954272Y3790746D01*
X3940403Y3795268D01*
X3926128Y3797960D01*
X3911600Y3798874D01*
X3897071Y3797960D01*
X3882796Y3795268D01*
X3868928Y3790746D01*
X3855770Y3784549D01*
X3843477Y3776776D01*
X3832250Y3767480D01*
X3822293Y3756863D01*
X3813759Y3745077D01*
X3806748Y3732326D01*
X3801364Y3718814D01*
X3797757Y3704691D01*
X3795928Y3690264D01*
X3795928Y3675735D01*
X3797757Y3661308D01*
X3801364Y3647186D01*
X3806748Y3633673D01*
X3813759Y3620922D01*
X3822293Y3609136D01*
X3832250Y3598519D01*
X3843477Y3589223D01*
X3855770Y3581450D01*
X3868928Y3575253D01*
X3882796Y3570732D01*
X3897071Y3568039D01*
G37*
G36*
X3657600Y3567125D02*
G01*
X3672128Y3568039D01*
X3686403Y3570732D01*
X3700272Y3575253D01*
X3713429Y3581450D01*
X3725722Y3589223D01*
X3736949Y3598519D01*
X3746906Y3609136D01*
X3755440Y3620922D01*
X3762451Y3633673D01*
X3767836Y3647186D01*
X3771442Y3661308D01*
X3773271Y3675735D01*
X3773271Y3690264D01*
X3771442Y3704691D01*
X3767836Y3718814D01*
X3762451Y3732326D01*
X3755440Y3745077D01*
X3746906Y3756863D01*
X3736949Y3767480D01*
X3725722Y3776776D01*
X3713429Y3784549D01*
X3700272Y3790746D01*
X3686403Y3795268D01*
X3672128Y3797960D01*
X3657600Y3798874D01*
X3643071Y3797960D01*
X3628796Y3795268D01*
X3614928Y3790746D01*
X3601770Y3784549D01*
X3589477Y3776776D01*
X3578250Y3767480D01*
X3568293Y3756863D01*
X3559759Y3745077D01*
X3552748Y3732326D01*
X3547364Y3718814D01*
X3543757Y3704691D01*
X3541928Y3690264D01*
X3541928Y3675735D01*
X3543757Y3661308D01*
X3547364Y3647186D01*
X3552748Y3633673D01*
X3559759Y3620922D01*
X3568293Y3609136D01*
X3578250Y3598519D01*
X3589477Y3589223D01*
X3601770Y3581450D01*
X3614928Y3575253D01*
X3628796Y3570732D01*
X3643071Y3568039D01*
G37*
G36*
X3911600Y3821125D02*
G01*
X3926128Y3822039D01*
X3940403Y3824732D01*
X3954272Y3829253D01*
X3967429Y3835450D01*
X3979722Y3843223D01*
X3990949Y3852519D01*
X4000906Y3863136D01*
X4009440Y3874922D01*
X4016451Y3887673D01*
X4021836Y3901186D01*
X4025442Y3915308D01*
X4027271Y3929735D01*
X4027271Y3944264D01*
X4025442Y3958691D01*
X4021836Y3972814D01*
X4016451Y3986326D01*
X4009440Y3999077D01*
X4000906Y4010863D01*
X3990949Y4021480D01*
X3979722Y4030776D01*
X3967429Y4038549D01*
X3954272Y4044746D01*
X3940403Y4049268D01*
X3926128Y4051960D01*
X3911600Y4052874D01*
X3897071Y4051960D01*
X3882796Y4049268D01*
X3868928Y4044746D01*
X3855770Y4038549D01*
X3843477Y4030776D01*
X3832250Y4021480D01*
X3822293Y4010863D01*
X3813759Y3999077D01*
X3806748Y3986326D01*
X3801364Y3972814D01*
X3797757Y3958691D01*
X3795928Y3944264D01*
X3795928Y3929735D01*
X3797757Y3915308D01*
X3801364Y3901186D01*
X3806748Y3887673D01*
X3813759Y3874922D01*
X3822293Y3863136D01*
X3832250Y3852519D01*
X3843477Y3843223D01*
X3855770Y3835450D01*
X3868928Y3829253D01*
X3882796Y3824732D01*
X3897071Y3822039D01*
G37*
G36*
X3209798Y3831132D02*
G01*
X3210763Y3831437D01*
X3219094Y3835958D01*
X3226562Y3841800D01*
X3232962Y3848760D01*
X3238144Y3856685D01*
X3241954Y3865372D01*
X3244291Y3874566D01*
X3245104Y3884422D01*
X3245104Y3902405D01*
X3209798Y3902405D01*
G37*
G36*
X3209798Y4027576D02*
G01*
X3245104Y4027576D01*
X3245104Y4045559D01*
X3244291Y4055465D01*
X3241954Y4064609D01*
X3238144Y4073296D01*
X3232962Y4081221D01*
X3226562Y4088231D01*
X3219094Y4094022D01*
X3210763Y4098544D01*
X3209798Y4098848D01*
G37*
G36*
X3657600Y4075125D02*
G01*
X3672128Y4076039D01*
X3686403Y4078732D01*
X3700272Y4083253D01*
X3713429Y4089450D01*
X3725722Y4097223D01*
X3736949Y4106519D01*
X3746906Y4117136D01*
X3755440Y4128922D01*
X3762451Y4141673D01*
X3767836Y4155186D01*
X3771442Y4169308D01*
X3773271Y4183735D01*
X3773271Y4198264D01*
X3771442Y4212691D01*
X3767836Y4226814D01*
X3762451Y4240326D01*
X3755440Y4253077D01*
X3746906Y4264863D01*
X3736949Y4275480D01*
X3725722Y4284776D01*
X3713429Y4292549D01*
X3700272Y4298746D01*
X3686403Y4303268D01*
X3672128Y4305960D01*
X3657600Y4306874D01*
X3643071Y4305960D01*
X3628796Y4303268D01*
X3614928Y4298746D01*
X3601770Y4292549D01*
X3589477Y4284776D01*
X3578250Y4275480D01*
X3568293Y4264863D01*
X3559759Y4253077D01*
X3552748Y4240326D01*
X3547364Y4226814D01*
X3543757Y4212691D01*
X3541928Y4198264D01*
X3541928Y4183735D01*
X3543757Y4169308D01*
X3547364Y4155186D01*
X3552748Y4141673D01*
X3559759Y4128922D01*
X3568293Y4117136D01*
X3578250Y4106519D01*
X3589477Y4097223D01*
X3601770Y4089450D01*
X3614928Y4083253D01*
X3628796Y4078732D01*
X3643071Y4076039D01*
G37*
G36*
X3860241Y4595317D02*
G01*
X3860241Y4647641D01*
X3807866Y4647641D01*
X3813759Y4636922D01*
X3822293Y4625136D01*
X3832250Y4614519D01*
X3843477Y4605223D01*
X3855770Y4597450D01*
G37*
G36*
X3606241Y4595317D02*
G01*
X3606241Y4647641D01*
X3553866Y4647641D01*
X3559759Y4636922D01*
X3568293Y4625136D01*
X3578250Y4614519D01*
X3589477Y4605223D01*
X3601770Y4597450D01*
G37*
G36*
X3962958Y4595317D02*
G01*
X3967429Y4597450D01*
X3979722Y4605223D01*
X3990949Y4614519D01*
X4000906Y4625136D01*
X4009440Y4636922D01*
X4015333Y4647641D01*
X3962958Y4647641D01*
G37*
G36*
X3708958Y4595317D02*
G01*
X3713429Y4597450D01*
X3725722Y4605223D01*
X3736949Y4614519D01*
X3746906Y4625136D01*
X3755440Y4636922D01*
X3761333Y4647641D01*
X3708958Y4647641D01*
G37*
G36*
X3708958Y4750358D02*
G01*
X3761333Y4750358D01*
X3755440Y4761077D01*
X3746906Y4772863D01*
X3736949Y4783480D01*
X3725722Y4792776D01*
X3713429Y4800549D01*
X3708958Y4802682D01*
G37*
G36*
X3962958Y4750358D02*
G01*
X4015333Y4750358D01*
X4009440Y4761077D01*
X4000906Y4772863D01*
X3990949Y4783480D01*
X3979722Y4792776D01*
X3967429Y4800549D01*
X3962958Y4802682D01*
G37*
G36*
X3553866Y4750358D02*
G01*
X3606241Y4750358D01*
X3606241Y4802682D01*
X3601770Y4800549D01*
X3589477Y4792776D01*
X3578250Y4783480D01*
X3568293Y4772863D01*
X3559759Y4761077D01*
G37*
G36*
X3807866Y4750358D02*
G01*
X3860241Y4750358D01*
X3860241Y4802682D01*
X3855770Y4800549D01*
X3843477Y4792776D01*
X3832250Y4783480D01*
X3822293Y4772863D01*
X3813759Y4761077D01*
G37*
G36*
X2563317Y4754219D02*
G01*
X2596337Y4754219D01*
X2596337Y4793538D01*
X2589784Y4793538D01*
X2583434Y4792827D01*
X2577998Y4790897D01*
X2573070Y4787798D01*
X2569006Y4783734D01*
X2565908Y4778806D01*
X2564028Y4773371D01*
X2563317Y4767021D01*
G37*
G36*
X2636062Y4754219D02*
G01*
X2669082Y4754219D01*
X2669082Y4767021D01*
X2668371Y4773371D01*
X2666492Y4778806D01*
X2663393Y4783734D01*
X2659329Y4787798D01*
X2654401Y4790897D01*
X2648966Y4792827D01*
X2642616Y4793538D01*
X2636062Y4793538D01*
G37*
G36*
X3568192Y4837074D02*
G01*
X3747008Y4837074D01*
X3753358Y4837785D01*
X3758793Y4839716D01*
X3763721Y4842814D01*
X3767785Y4846878D01*
X3770884Y4851806D01*
X3772814Y4857242D01*
X3773525Y4863592D01*
X3773525Y4904232D01*
X3774287Y4908143D01*
X3776472Y4911445D01*
X3779774Y4913630D01*
X3783685Y4914392D01*
X3795572Y4914392D01*
X3799535Y4913630D01*
X3802837Y4911344D01*
X3805021Y4907991D01*
X3806748Y4903673D01*
X3813759Y4890922D01*
X3822293Y4879136D01*
X3832250Y4868519D01*
X3843477Y4859223D01*
X3855770Y4851450D01*
X3868928Y4845253D01*
X3882796Y4840732D01*
X3897071Y4838039D01*
X3911600Y4837125D01*
X3926128Y4838039D01*
X3940403Y4840732D01*
X3954272Y4845253D01*
X3967429Y4851450D01*
X3979722Y4859223D01*
X3990949Y4868519D01*
X4000906Y4879136D01*
X4009440Y4890922D01*
X4016451Y4903673D01*
X4021836Y4917186D01*
X4025442Y4931308D01*
X4027271Y4945735D01*
X4027271Y4960264D01*
X4025442Y4974691D01*
X4021836Y4988814D01*
X4016451Y5002326D01*
X4009440Y5015077D01*
X4000906Y5026863D01*
X3990949Y5037480D01*
X3979722Y5046776D01*
X3967429Y5054549D01*
X3954272Y5060746D01*
X3940403Y5065268D01*
X3926128Y5067960D01*
X3911600Y5068874D01*
X3897071Y5067960D01*
X3882796Y5065268D01*
X3868928Y5060746D01*
X3855770Y5054549D01*
X3843477Y5046776D01*
X3832250Y5037480D01*
X3822293Y5026863D01*
X3813759Y5015077D01*
X3806748Y5002326D01*
X3805021Y4998059D01*
X3802837Y4994656D01*
X3799535Y4992420D01*
X3795572Y4991608D01*
X3783685Y4991608D01*
X3779774Y4992370D01*
X3776472Y4994605D01*
X3774287Y4997907D01*
X3773525Y5001768D01*
X3773525Y5042408D01*
X3772814Y5048758D01*
X3770884Y5054193D01*
X3767785Y5059121D01*
X3763721Y5063185D01*
X3758793Y5066284D01*
X3753358Y5068214D01*
X3747008Y5068925D01*
X3568192Y5068925D01*
X3561842Y5068214D01*
X3556406Y5066284D01*
X3551478Y5063185D01*
X3547414Y5059121D01*
X3544315Y5054193D01*
X3542385Y5048758D01*
X3541674Y5042408D01*
X3541674Y5001768D01*
X3540912Y4997907D01*
X3538728Y4994605D01*
X3535426Y4992370D01*
X3531514Y4991608D01*
X3500221Y4991608D01*
X3496259Y4992420D01*
X3484219Y5001412D01*
X3475583Y5005781D01*
X3466388Y5008575D01*
X3456838Y5009845D01*
X3447186Y5009388D01*
X3437737Y5007356D01*
X3428796Y5003800D01*
X3420567Y4998720D01*
X3413353Y4992370D01*
X3407257Y4984851D01*
X3402584Y4976418D01*
X3399383Y4967325D01*
X3397758Y4957826D01*
X3397758Y4948174D01*
X3399383Y4938674D01*
X3402584Y4929581D01*
X3407257Y4921148D01*
X3413353Y4913630D01*
X3420567Y4907280D01*
X3428796Y4902200D01*
X3437737Y4898644D01*
X3447186Y4896612D01*
X3456838Y4896154D01*
X3466388Y4897424D01*
X3475583Y4900218D01*
X3484219Y4904587D01*
X3496259Y4913579D01*
X3500221Y4914392D01*
X3531514Y4914392D01*
X3535426Y4913630D01*
X3538728Y4911394D01*
X3540912Y4908143D01*
X3541674Y4904232D01*
X3541674Y4863592D01*
X3542385Y4857242D01*
X3544315Y4851806D01*
X3547414Y4846878D01*
X3551478Y4842814D01*
X3556406Y4839716D01*
X3561842Y4837785D01*
G37*
G36*
X3033217Y5016754D02*
G01*
X3066237Y5016754D01*
X3066237Y5050485D01*
X3059684Y5050485D01*
X3053334Y5049774D01*
X3047898Y5047843D01*
X3042970Y5044744D01*
X3038906Y5040680D01*
X3035808Y5035753D01*
X3033928Y5030317D01*
X3033217Y5024018D01*
G37*
G36*
X3105962Y5016754D02*
G01*
X3138982Y5016754D01*
X3138982Y5024018D01*
X3138271Y5030317D01*
X3136392Y5035753D01*
X3133293Y5040680D01*
X3129229Y5044744D01*
X3124301Y5047843D01*
X3118866Y5049774D01*
X3112516Y5050485D01*
X3105962Y5050485D01*
G37*

%LPD*%
D10*
X3911612Y4445012D02*
G01*
X3949712Y4445012D01*
X4089400Y4584700D01*
X4089400Y5067300D01*
X4025900Y5130800D01*
X3009900Y5130800D01*
X3454400Y4953000D02*
G01*
X3657610Y4953010D01*
X3657610Y4953010D02*
G01*
X3911610Y4953010D01*
X2839615Y4953000D02*
G01*
X2839615Y5130800D01*
X3009900Y5130800D02*
G01*
X2926184Y5047084D01*
X2926184Y4953000D01*
X3086100Y4909718D02*
G01*
X3192901Y4909718D01*
X3657610Y4445010D01*
X3187700Y4671006D02*
G01*
X3342693Y4671006D01*
X3454400Y4559300D01*
X3454400Y4140220D01*
X3657610Y3937010D01*
X3060700Y3964993D02*
G01*
X3060700Y3548484D01*
X2933700Y3964993D02*
G01*
X2933700Y3784600D01*
X3454400Y3479800D02*
G01*
X4038600Y3479800D01*
X4140200Y3581400D01*
X4140200Y3962417D01*
X3911612Y4191012D01*
X3060700Y3548484D02*
G01*
X3385715Y3548484D01*
X3454400Y3479800D01*
X2616200Y4619091D02*
G01*
X2612491Y4619091D01*
X2501900Y4508500D01*
X2501900Y3568700D01*
X2608684Y3461915D01*
X2794000Y3461915D01*
X2806700Y4671006D02*
G01*
X2806700Y4920084D01*
X2839615Y4953000D01*
X2839615Y4965700D01*
X2926184Y4965700D02*
G01*
X2926184Y4953000D01*
X2933700Y4945484D01*
X2933700Y4671006D01*
X2806700Y3964993D02*
G01*
X2794000Y3952293D01*
X2794000Y3683000D01*
X2794000Y3683000D02*
G01*
X2794000Y3548484D01*
X2794000Y3461915D02*
G01*
X3060700Y3461915D01*
X3086100Y4909715D02*
G01*
X3060700Y4884315D01*
X3060700Y4671006D01*
X2616200Y4619091D02*
G01*
X2668115Y4671006D01*
X2806700Y4671006D01*
D11*
G01*
X2839617Y4953000D03*
G01*
X2926182Y4953000D03*
D12*
G01*
X2794000Y3461917D03*
D13*
G01*
X2794000Y3548481D03*
D12*
G01*
X3060700Y3548482D03*
D13*
G01*
X3060700Y3461918D03*
D12*
G01*
X3086100Y4909717D03*
D13*
G01*
X3086100Y4996281D03*
D14*
G01*
X2616200Y4728105D03*
D15*
G01*
X2616200Y4619091D03*
D16*
G01*
X2806700Y3964990D03*
G01*
X2933700Y3964990D03*
G01*
X3060700Y3964990D03*
G01*
X3187700Y3964990D03*
G01*
X2806700Y4671009D03*
G01*
X2933700Y4671009D03*
G01*
X3060700Y4671009D03*
G01*
X3187700Y4671009D03*
D17*
G01*
X3657610Y4953010D03*
D18*
G01*
X3911610Y4953010D03*
G01*
X3657610Y4699010D03*
G01*
X3911610Y4699010D03*
G01*
X3657610Y4445010D03*
G01*
X3911610Y4445010D03*
G01*
X3657610Y4191010D03*
G01*
X3911610Y4191010D03*
G01*
X3657610Y3937010D03*
G01*
X3911610Y3937010D03*
G01*
X3657610Y3683010D03*
G01*
X3911610Y3683010D03*
D19*
G01*
X2839618Y5130800D03*
G01*
X3454400Y4953000D03*
G01*
X2794000Y3683000D03*
G01*
X2933700Y3784600D03*
M02*
