G04 Layer: TopPasteMaskLayer*
G04 EasyEDA v6.5.28, 2023-04-26 18:09:45*
G04 5b3014f588d64736849814bc4e181a52,358ee61244f84d38bc88aa0054fa78fe,10*
G04 Gerber Generator version 0.2*
G04 Scale: 100 percent, Rotated: No, Reflected: No *
G04 Dimensions in millimeters *
G04 leading zeros omitted , absolute positions ,4 integer and 5 decimal *
%FSLAX45Y45*%
%MOMM*%

%ADD10O,0.6299962X2.2500082*%

%LPD*%
G36*
X2815336Y4980025D02*
G01*
X2811322Y4976012D01*
X2811322Y4929987D01*
X2815336Y4925974D01*
X2865374Y4925974D01*
X2869387Y4929987D01*
X2869387Y4976012D01*
X2865374Y4980025D01*
G37*
G36*
X2900426Y4980025D02*
G01*
X2896412Y4976012D01*
X2896412Y4929987D01*
X2900426Y4925974D01*
X2950464Y4925974D01*
X2954477Y4929987D01*
X2954477Y4976012D01*
X2950464Y4980025D01*
G37*
G36*
X2770987Y3491687D02*
G01*
X2766974Y3487724D01*
X2766974Y3437636D01*
X2770987Y3433622D01*
X2817012Y3433622D01*
X2821025Y3437636D01*
X2821025Y3487724D01*
X2817012Y3491687D01*
G37*
G36*
X2770987Y3576777D02*
G01*
X2766974Y3572764D01*
X2766974Y3522675D01*
X2770987Y3518712D01*
X2817012Y3518712D01*
X2821025Y3522675D01*
X2821025Y3572764D01*
X2817012Y3576777D01*
G37*
G36*
X3037687Y3576777D02*
G01*
X3033674Y3572764D01*
X3033674Y3522675D01*
X3037687Y3518712D01*
X3083712Y3518712D01*
X3087725Y3522675D01*
X3087725Y3572764D01*
X3083712Y3576777D01*
G37*
G36*
X3037687Y3491687D02*
G01*
X3033674Y3487724D01*
X3033674Y3437636D01*
X3037687Y3433622D01*
X3083712Y3433622D01*
X3087725Y3437636D01*
X3087725Y3487724D01*
X3083712Y3491687D01*
G37*
G36*
X3063087Y4939487D02*
G01*
X3059074Y4935524D01*
X3059074Y4885436D01*
X3063087Y4881422D01*
X3109112Y4881422D01*
X3113125Y4885436D01*
X3113125Y4935524D01*
X3109112Y4939487D01*
G37*
G36*
X3063087Y5024577D02*
G01*
X3059074Y5020564D01*
X3059074Y4970475D01*
X3063087Y4966512D01*
X3109112Y4966512D01*
X3113125Y4970475D01*
X3113125Y5020564D01*
X3109112Y5024577D01*
G37*
G36*
X2593695Y4655616D02*
G01*
X2588717Y4648606D01*
X2588717Y4600600D01*
X2593695Y4595622D01*
X2638704Y4595622D01*
X2643682Y4600600D01*
X2643682Y4648606D01*
X2638704Y4655616D01*
G37*
G36*
X2593695Y4751578D02*
G01*
X2588717Y4746599D01*
X2588717Y4698593D01*
X2593695Y4691583D01*
X2638704Y4691583D01*
X2643682Y4698593D01*
X2643682Y4746599D01*
X2638704Y4751578D01*
G37*
D10*
G01*
X2806700Y3964990D03*
G01*
X2933700Y3964990D03*
G01*
X3060700Y3964990D03*
G01*
X3187700Y3964990D03*
G01*
X2806700Y4671009D03*
G01*
X2933700Y4671009D03*
G01*
X3060700Y4671009D03*
G01*
X3187700Y4671009D03*
M02*
